<svg width="14" height="14" viewBox="0 0 14 14" fill="none" xmlns="http://www.w3.org/2000/svg">
<path d="M1.75 7.58337C3.85 2.91671 10.15 2.91671 12.25 7.58337" stroke="#26508E" stroke-width="1.3" stroke-linecap="round" stroke-linejoin="round"/>
<path d="M7 9.91675C6.77019 9.91675 6.54262 9.87148 6.3303 9.78354C6.11798 9.69559 5.92507 9.56669 5.76256 9.40419C5.60006 9.24168 5.47116 9.04876 5.38321 8.83644C5.29526 8.62412 5.25 8.39656 5.25 8.16675C5.25 7.93693 5.29526 7.70937 5.38321 7.49705C5.47116 7.28473 5.60006 7.09181 5.76256 6.92931C5.92507 6.76681 6.11798 6.6379 6.3303 6.54996C6.54262 6.46201 6.77019 6.41675 7 6.41675C7.46413 6.41675 7.90925 6.60112 8.23744 6.92931C8.56563 7.2575 8.75 7.70262 8.75 8.16675C8.75 8.63088 8.56563 9.076 8.23744 9.40419C7.90925 9.73237 7.46413 9.91675 7 9.91675Z" fill="#26508E"/>
</svg>
